Coordinates
version=1
nRows=24
nColumns=24
inDegrees=yes

Units are S.I. units (second, meters, Newtons, ...)
Angles are in degrees.

endheader
time	pelvis_tilt	pelvis_list	pelvis_rotation	pelvis_tx	pelvis_ty	pelvis_tz	hip_flexion_r	hip_adduction_r	hip_rotation_r	knee_angle_r	ankle_angle_r	subtalar_angle_r	mtp_angle_r	hip_flexion_l	hip_adduction_l	hip_rotation_l	knee_angle_l	ankle_angle_l	subtalar_angle_l	mtp_angle_l	lumbar_extension	lumbar_bending	lumbar_rotation
      1.25916667	      1.30178298	      0.70417008	     -2.81608869	      0.31470560	      1.08948327	      0.24670988	     14.91248098	     -5.11767818	     -8.96470587	    -64.84902556	      2.43647336	     -0.68979580	      8.57244095	      5.23199583	      3.55569332	      2.61291991	    -15.87737620	      9.33070234	      2.48603508	      1.63382024	    -17.31662955	     -1.59476165	     -3.01830359
      1.26333333	      1.32043210	      0.58842910	     -2.69353722	      0.31954736	      1.09032005	      0.24636856	     15.29414942	     -4.98743060	     -9.16608143	    -64.23314930	      2.74506516	     -0.38914967	      8.60416388	      4.69755217	      3.44467143	      2.71678320	    -15.39885567	      9.31131808	      2.54330867	      1.63970158	    -17.36576990	     -1.39287201	     -3.19623799
      1.26750000	      1.32006621	      0.46809855	     -2.56548653	      0.32439505	      1.09110385	      0.24603680	     15.68107165	     -4.84548693	     -9.36521711	    -63.56588441	      3.04160959	     -0.08983059	      8.63709745	      4.18660681	      3.32587801	      2.82913657	    -14.92530095	      9.28995190	      2.59315294	      1.64579460	    -17.39603381	     -1.19222894	     -3.36673256
      1.27166667	      1.30058287	      0.35769467	     -2.45039727	      0.32924142	      1.09176829	      0.24574076	     16.08855120	     -4.70782115	     -9.54652999	    -62.87697089	      3.32544409	      0.14518746	      8.65739857	      3.70559999	      3.20945708	      2.89152347	    -14.46739158	      9.25123331	      2.68539129	      1.64815049	    -17.39742177	     -0.99678368	     -3.45694788
      1.27583333	      1.31630212	      0.26642529	     -2.31966366	      0.33405115	      1.09244255	      0.24542514	     16.44500983	     -4.59813361	     -9.73523892	    -62.14920061	      3.63753838	      0.47287336	      8.70361252	      3.17785361	      3.12339312	      3.04552312	    -13.98542810	      9.23191507	      2.67771129	      1.65787204	    -17.45440168	     -0.83566878	     -3.73553895
      1.28000000	      1.28042815	      0.14253504	     -2.19721762	      0.33890081	      1.09299934	      0.24513166	     16.84009068	     -4.43921021	     -9.91378693	    -61.36558801	      3.88802337	      0.70364673	      8.72438745	      2.72513925	      2.98941108	      3.11348255	    -13.55104257	      9.22775783	      2.75751631	      1.66180756	    -17.43278144	     -0.63112047	     -3.80982738
      1.28416667	      1.27234838	      0.04958979	     -2.07553805	      0.34370741	      1.09352045	      0.24486517	     17.20293309	     -4.31542627	    -10.08119827	    -60.56227609	      4.16499269	      0.97489313	      8.75078625	      2.24237448	      2.89025728	      3.20899275	    -13.10769235	      9.23121867	      2.80755947	      1.66749335	    -17.45062637	     -0.47798429	     -3.97161016
      1.28833333	      1.26633339	     -0.02322258	     -1.95953386	      0.34852350	      1.09399691	      0.24459891	     17.55784610	     -4.21504298	    -10.24064899	    -59.73364357	      4.42121057	      1.21971446	      8.78469384	      1.74593428	      2.81589172	      3.33431526	    -12.63755123	      9.23314091	      2.81036596	      1.67629454	    -17.46708538	     -0.31913557	     -4.18841701
      1.29250000	      1.22330489	     -0.11592905	     -1.85013310	      0.35333411	      1.09435120	      0.24438204	     17.93985144	     -4.07585622	    -10.37731706	    -58.85892994	      4.65828732	      1.39055550	      8.80539870	      1.31328428	      2.70948099	      3.40068658	    -12.21923320	      9.21649302	      2.86740952	      1.68149565	    -17.44229593	     -0.16680303	     -4.29015919
      1.29666667	      1.20239772	     -0.17551582	     -1.74214402	      0.35813210	      1.09467508	      0.24416849	     18.29348681	     -3.97726103	    -10.50595368	    -57.96665974	      4.90167752	      1.58059376	      8.84493356	      0.84270810	      2.64500111	      3.53018095	    -11.76743041	      9.20967752	      2.85116653	      1.69487879	    -17.44969114	     -0.03161194	     -4.51581719
      1.30083333	      1.13985830	     -0.23919280	     -1.65671238	      0.36295614	      1.09486151	      0.24401385	     18.68661779	     -3.85928042	    -10.60425318	    -57.04404268	      5.11171119	      1.69733588	      8.85756184	      0.43239424	      2.56580711	      3.56583394	    -11.35188370	      9.23049247	      2.93290655	      1.69915225	    -17.39011075	      0.09501158	     -4.56585706
      1.30500000	      1.08713364	     -0.31182974	     -1.55324058	      0.36774453	      1.09502281	      0.24384010	     19.04627568	     -3.73365137	    -10.70978278	    -56.06751203	      5.31996555	      1.84969961	      8.87446634	      0.02902552	      2.47778274	      3.63513176	    -10.97088751	      9.25023706	      2.97013452	      1.70565400	    -17.35869862	      0.22035988	     -4.68717276
      1.30916667	      1.02945560	     -0.35801659	     -1.46628903	      0.37253827	      1.09510582	      0.24371040	     19.41028386	     -3.62872779	    -10.78471310	    -55.07553261	      5.51972688	      1.95655072	      8.88981020	     -0.37546705	      2.41773753	      3.70463765	    -10.57612473	      9.27202133	      3.00430515	      1.71253812	    -17.31496953	      0.32193153	     -4.81687623
      1.31333333	      0.99707942	     -0.39860127	     -1.37948056	      0.37731396	      1.09517715	      0.24358512	     19.73450771	     -3.53092140	    -10.85667193	    -54.04936606	      5.68477908	      2.03924907	      8.91461351	     -0.81260327	      2.36634208	      3.81560494	    -10.16924231	      9.31209656	      2.98049996	      1.72667269	    -17.30113140	      0.42322908	     -5.01484007
      1.31750000	      0.92679589	     -0.43433901	     -1.31453076	      0.38209183	      1.09512931	      0.24352599	     20.09224560	     -3.41869057	    -10.88147410	    -52.99271690	      5.87154794	      2.08631716	      8.92656036	     -1.19022263	      2.31330679	      3.84918071	     -9.80157653	      9.33110059	      3.02967402	      1.73327641	    -17.24749226	      0.49926679	     -5.07979061
      1.32166667	      0.87740844	     -0.46242347	     -1.24546630	      0.38685154	      1.09505906	      0.24346275	     20.41359152	     -3.31642087	    -10.90250511	    -51.90104019	      6.01705945	      2.10666000	      8.95103229	     -1.59814896	      2.27195878	      3.94825122	     -9.41782083	      9.37252105	      3.01065255	      1.75031407	    -17.22440265	      0.57811621	     -5.23631110
      1.32583333	      0.79050093	     -0.48034859	     -1.19906676	      0.39163322	      1.09485372	      0.24344915	     20.77009496	     -3.21394158	    -10.89110629	    -50.78899619	      6.18363938	      2.12543145	      8.95961007	     -1.95152387	      2.23674828	      3.96683733	     -9.06685073	      9.42276834	      3.06361766	      1.75681456	    -17.14414481	      0.63131322	     -5.28131132
      1.33000000	      0.71003653	     -0.49543949	     -1.15069298	      0.39641000	      1.09461638	      0.24345105	     21.10149375	     -3.10959876	    -10.86487227	    -49.63505799	      6.32285839	      2.11378407	      8.96765610	     -2.30760074	      2.20368858	      4.00205172	     -8.72627694	      9.48181366	      3.09771065	      1.76441557	    -17.08365374	      0.67886828	     -5.35296842
      1.33416667	      0.62981292	     -0.49961592	     -1.10920647	      0.40116723	      1.09432181	      0.24346968	     21.42051488	     -3.00947974	    -10.81110942	    -48.44574408	      6.44250513	      2.07463186	      8.97677776	     -2.65825402	      2.18377411	      4.05037259	     -8.39867604	      9.54364392	      3.11352916	      1.77354874	    -17.01221640	      0.71978316	     -5.43614575
      1.33833333	      0.55368824	     -0.50276172	     -1.07604979	      0.40592349	      1.09399385	      0.24351847	     21.72014822	     -2.90325311	    -10.73862512	    -47.22058475	      6.55419101	      2.01483385	      8.98550328	     -3.01355236	      2.16414446	      4.09406358	     -8.07175611	      9.61039409	      3.12504859	      1.78289622	    -16.95363029	      0.75329798	     -5.51096705
      1.34250000	      0.46228787	     -0.49906500	     -1.05192139	      0.41068862	      1.09357854	      0.24359110	     22.02434319	     -2.79952406	    -10.64853730	    -45.96865129	      6.66120394	      1.93978454	      8.99334275	     -3.35106298	      2.15072228	      4.13028551	     -7.74881080	      9.68313487	      3.13638508	      1.79189615	    -16.88697184	      0.77607373	     -5.57429555
      1.34666667	      0.39203336	     -0.48150898	     -1.03253552	      0.41543329	      1.09314648	      0.24368256	     22.29193883	     -2.70547774	    -10.53725958	    -44.68133530	      6.72840416	      1.81765747	      9.00498996	     -3.71103798	      2.15376438	      4.18514460	     -7.42754593	      9.76614375	      3.12105184	      1.80487546	    -16.83465585	      0.77256233	     -5.64515588
      1.35083333	      0.28563248	     -0.45451592	     -1.02739541	      0.42018931	      1.09259537	      0.24380577	     22.58721131	     -2.61128721	    -10.38856025	    -43.36935463	      6.84942104	      1.74897873	      9.01214288	     -4.02148749	      2.16573445	      4.21043126	     -7.13133888	      9.84345349	      3.13849962	      1.81271150	    -16.74767371	      0.77293784	     -5.68256785
      1.35500000	      0.19969955	     -0.42038498	     -1.02181794	      0.42493381	      1.09203043	      0.24395067	     22.84385231	     -2.52169668	    -10.23254011	    -42.02017318	      6.88649434	      1.57853115	      9.02423280	     -4.35867757	      2.18530854	      4.26392622	     -6.82646858	      9.93677216	      3.11475808	      1.82550490	    -16.68412485	      0.74411621	     -5.73104657
